<svg id="visual" viewBox="0 0 900 600" width="900" height="600" xmlns="http://www.w3.org/2000/svg" xmlns:xlink="http://www.w3.org/1999/xlink" version="1.1"><rect x="0" y="0" width="900" height="600" fill="#00213a"></rect><defs><linearGradient id="grad1_0" x1="33.3%" y1="0%" x2="100%" y2="100%"><stop offset="20%" stop-color="#0d316e" stop-opacity="1"></stop><stop offset="80%" stop-color="#0d316e" stop-opacity="1"></stop></linearGradient></defs><defs><linearGradient id="grad1_1" x1="33.3%" y1="0%" x2="100%" y2="100%"><stop offset="20%" stop-color="#0d316e" stop-opacity="1"></stop><stop offset="80%" stop-color="#002e64" stop-opacity="1"></stop></linearGradient></defs><defs><linearGradient id="grad1_2" x1="33.3%" y1="0%" x2="100%" y2="100%"><stop offset="20%" stop-color="#002c5a" stop-opacity="1"></stop><stop offset="80%" stop-color="#002e64" stop-opacity="1"></stop></linearGradient></defs><defs><linearGradient id="grad1_3" x1="33.3%" y1="0%" x2="100%" y2="100%"><stop offset="20%" stop-color="#002c5a" stop-opacity="1"></stop><stop offset="80%" stop-color="#00284f" stop-opacity="1"></stop></linearGradient></defs><defs><linearGradient id="grad1_4" x1="33.3%" y1="0%" x2="100%" y2="100%"><stop offset="20%" stop-color="#002545" stop-opacity="1"></stop><stop offset="80%" stop-color="#00284f" stop-opacity="1"></stop></linearGradient></defs><defs><linearGradient id="grad1_5" x1="33.3%" y1="0%" x2="100%" y2="100%"><stop offset="20%" stop-color="#002545" stop-opacity="1"></stop><stop offset="80%" stop-color="#00213a" stop-opacity="1"></stop></linearGradient></defs><defs><linearGradient id="grad2_0" x1="0%" y1="0%" x2="66.7%" y2="100%"><stop offset="20%" stop-color="#0d316e" stop-opacity="1"></stop><stop offset="80%" stop-color="#0d316e" stop-opacity="1"></stop></linearGradient></defs><defs><linearGradient id="grad2_1" x1="0%" y1="0%" x2="66.7%" y2="100%"><stop offset="20%" stop-color="#002e64" stop-opacity="1"></stop><stop offset="80%" stop-color="#0d316e" stop-opacity="1"></stop></linearGradient></defs><defs><linearGradient id="grad2_2" x1="0%" y1="0%" x2="66.7%" y2="100%"><stop offset="20%" stop-color="#002e64" stop-opacity="1"></stop><stop offset="80%" stop-color="#002c5a" stop-opacity="1"></stop></linearGradient></defs><defs><linearGradient id="grad2_3" x1="0%" y1="0%" x2="66.7%" y2="100%"><stop offset="20%" stop-color="#00284f" stop-opacity="1"></stop><stop offset="80%" stop-color="#002c5a" stop-opacity="1"></stop></linearGradient></defs><defs><linearGradient id="grad2_4" x1="0%" y1="0%" x2="66.7%" y2="100%"><stop offset="20%" stop-color="#00284f" stop-opacity="1"></stop><stop offset="80%" stop-color="#002545" stop-opacity="1"></stop></linearGradient></defs><defs><linearGradient id="grad2_5" x1="0%" y1="0%" x2="66.7%" y2="100%"><stop offset="20%" stop-color="#00213a" stop-opacity="1"></stop><stop offset="80%" stop-color="#002545" stop-opacity="1"></stop></linearGradient></defs><g transform="translate(900, 0)"><path d="M0 540.8C-30.5 487.2 -61 433.5 -117.8 439.5C-174.5 445.5 -257.6 511.2 -270.4 468.4C-283.3 425.5 -225.9 274 -201.5 201.5C-177.2 129 -185.8 135.4 -242.5 140C-299.2 144.6 -404 147.4 -461.7 123.7C-519.4 100.1 -530.1 50 -540.8 0L0 0Z" fill="#00233f"></path><path d="M0 450.7C-25.4 406 -50.8 361.2 -98.1 366.2C-145.4 371.3 -214.6 426 -225.3 390.3C-236 354.6 -188.2 228.4 -167.9 167.9C-147.6 107.5 -154.8 112.8 -202.1 116.7C-249.3 120.5 -336.6 122.8 -384.8 103.1C-432.9 83.4 -441.8 41.7 -450.7 0L0 0Z" fill="#00274a"></path><path d="M0 360.6C-20.3 324.8 -40.7 289 -78.5 293C-116.4 297 -171.7 340.8 -180.3 312.2C-188.8 283.7 -150.6 182.7 -134.4 134.4C-118.1 86 -123.9 90.3 -161.7 93.3C-199.5 96.4 -269.3 98.2 -307.8 82.5C-346.3 66.7 -353.4 33.4 -360.6 0L0 0Z" fill="#002a54"></path><path d="M0 270.4C-15.2 243.6 -30.5 216.7 -58.9 219.7C-87.3 222.8 -128.8 255.6 -135.2 234.2C-141.6 212.8 -112.9 137 -100.8 100.8C-88.6 64.5 -92.9 67.7 -121.2 70C-149.6 72.3 -202 73.7 -230.9 61.9C-259.7 50 -265.1 25 -270.4 0L0 0Z" fill="#002d5f"></path><path d="M0 180.3C-10.2 162.4 -20.3 144.5 -39.3 146.5C-58.2 148.5 -85.9 170.4 -90.1 156.1C-94.4 141.8 -75.3 91.3 -67.2 67.2C-59.1 43 -61.9 45.1 -80.8 46.7C-99.7 48.2 -134.7 49.1 -153.9 41.2C-173.1 33.4 -176.7 16.7 -180.3 0L0 0Z" fill="#053069"></path><path d="M0 90.1C-5.1 81.2 -10.2 72.2 -19.6 73.2C-29.1 74.3 -42.9 85.2 -45.1 78.1C-47.2 70.9 -37.6 45.7 -33.6 33.6C-29.5 21.5 -31 22.6 -40.4 23.3C-49.9 24.1 -67.3 24.6 -77 20.6C-86.6 16.7 -88.4 8.3 -90.1 0L0 0Z" fill="#0d316e"></path></g><g transform="translate(0, 600)"><path d="M0 -540.8C26.6 -463.6 53.1 -386.3 102 -380.6C150.8 -374.9 222 -440.7 248.5 -430.4C275 -420.2 256.8 -333.8 304.1 -304.1C351.3 -274.3 464.2 -301.1 468.4 -270.4C472.6 -239.8 368.2 -151.7 362.2 -97.1C356.2 -42.4 448.5 -21.2 540.8 0L0 0Z" fill="#00233f"></path><path d="M0 -450.7C22.1 -386.3 44.3 -321.9 85 -317.1C125.7 -312.4 185 -367.2 207.1 -358.7C229.2 -350.1 214 -278.2 253.4 -253.4C292.8 -228.6 386.8 -250.9 390.3 -225.3C393.8 -199.8 306.9 -126.4 301.9 -80.9C296.8 -35.3 373.8 -17.7 450.7 0L0 0Z" fill="#00274a"></path><path d="M0 -360.6C17.7 -309 35.4 -257.5 68 -253.7C100.6 -249.9 148 -293.8 165.7 -286.9C183.3 -280.1 171.2 -222.6 202.7 -202.7C234.2 -182.9 309.4 -200.7 312.2 -180.3C315.1 -159.8 245.5 -101.1 241.5 -64.7C237.5 -28.3 299 -14.1 360.6 0L0 0Z" fill="#002a54"></path><path d="M0 -270.4C13.3 -231.8 26.6 -193.1 51 -190.3C75.4 -187.4 111 -220.3 124.2 -215.2C137.5 -210.1 128.4 -166.9 152 -152C175.7 -137.1 232.1 -150.5 234.2 -135.2C236.3 -119.9 184.1 -75.8 181.1 -48.5C178.1 -21.2 224.3 -10.6 270.4 0L0 0Z" fill="#002d5f"></path><path d="M0 -180.3C8.9 -154.5 17.7 -128.8 34 -126.9C50.3 -125 74 -146.9 82.8 -143.5C91.7 -140.1 85.6 -111.3 101.4 -101.4C117.1 -91.4 154.7 -100.4 156.1 -90.1C157.5 -79.9 122.7 -50.6 120.7 -32.4C118.7 -14.1 149.5 -7.1 180.3 0L0 0Z" fill="#053069"></path><path d="M0 -90.1C4.4 -77.3 8.9 -64.4 17 -63.4C25.1 -62.5 37 -73.4 41.4 -71.7C45.8 -70 42.8 -55.6 50.7 -50.7C58.6 -45.7 77.4 -50.2 78.1 -45.1C78.8 -40 61.4 -25.3 60.4 -16.2C59.4 -7.1 74.8 -3.5 90.1 0L0 0Z" fill="#0d316e"></path></g></svg>