<svg id="visual" viewBox="0 0 900 600" width="900" height="600" xmlns="http://www.w3.org/2000/svg" xmlns:xlink="http://www.w3.org/1999/xlink" version="1.1"><rect x="0" y="0" width="900" height="600" fill="#001220"></rect><path d="M0 134L13.7 157.3C27.3 180.7 54.7 227.3 82 226.3C109.3 225.3 136.7 176.7 163.8 161.5C191 146.3 218 164.7 245.2 179.8C272.3 195 299.7 207 327 209.7C354.3 212.3 381.7 205.7 409 199.7C436.3 193.7 463.7 188.3 491 195.7C518.3 203 545.7 223 573 239C600.3 255 627.7 267 654.8 245.7C682 224.3 709 169.7 736.2 164.2C763.3 158.7 790.7 202.3 818 208.5C845.3 214.7 872.7 183.3 886.3 167.7L900 152L900 601L886.3 601C872.7 601 845.3 601 818 601C790.7 601 763.3 601 736.2 601C709 601 682 601 654.8 601C627.7 601 600.3 601 573 601C545.7 601 518.3 601 491 601C463.7 601 436.3 601 409 601C381.7 601 354.3 601 327 601C299.7 601 272.3 601 245.2 601C218 601 191 601 163.8 601C136.7 601 109.3 601 82 601C54.7 601 27.3 601 13.7 601L0 601Z" fill="#041f33"></path><path d="M0 314L13.7 314.5C27.3 315 54.7 316 82 305C109.3 294 136.7 271 163.8 265.7C191 260.3 218 272.7 245.2 263.7C272.3 254.7 299.7 224.3 327 227.5C354.3 230.7 381.7 267.3 409 270.8C436.3 274.3 463.7 244.7 491 236.7C518.3 228.7 545.7 242.3 573 242C600.3 241.7 627.7 227.3 654.8 238C682 248.7 709 284.3 736.2 283C763.3 281.7 790.7 243.3 818 220.5C845.3 197.7 872.7 190.3 886.3 186.7L900 183L900 601L886.3 601C872.7 601 845.3 601 818 601C790.7 601 763.3 601 736.2 601C709 601 682 601 654.8 601C627.7 601 600.3 601 573 601C545.7 601 518.3 601 491 601C463.7 601 436.3 601 409 601C381.7 601 354.3 601 327 601C299.7 601 272.3 601 245.2 601C218 601 191 601 163.8 601C136.7 601 109.3 601 82 601C54.7 601 27.3 601 13.7 601L0 601Z" fill="#002b4d"></path><path d="M0 322L13.7 320.2C27.3 318.3 54.7 314.7 82 313C109.3 311.3 136.7 311.7 163.8 322.2C191 332.7 218 353.3 245.2 364.7C272.3 376 299.7 378 327 360C354.3 342 381.7 304 409 304.5C436.3 305 463.7 344 491 352.2C518.3 360.3 545.7 337.7 573 337.7C600.3 337.7 627.7 360.3 654.8 367.2C682 374 709 365 736.2 345C763.3 325 790.7 294 818 281.2C845.3 268.3 872.7 273.7 886.3 276.3L900 279L900 601L886.3 601C872.7 601 845.3 601 818 601C790.7 601 763.3 601 736.2 601C709 601 682 601 654.8 601C627.7 601 600.3 601 573 601C545.7 601 518.3 601 491 601C463.7 601 436.3 601 409 601C381.7 601 354.3 601 327 601C299.7 601 272.3 601 245.2 601C218 601 191 601 163.8 601C136.7 601 109.3 601 82 601C54.7 601 27.3 601 13.7 601L0 601Z" fill="#003769"></path><path d="M0 419L13.7 405.7C27.3 392.3 54.7 365.7 82 365.3C109.3 365 136.7 391 163.8 396.3C191 401.7 218 386.3 245.2 391.3C272.3 396.3 299.7 421.7 327 432.2C354.3 442.7 381.7 438.3 409 424.3C436.3 410.3 463.7 386.7 491 368.3C518.3 350 545.7 337 573 349.3C600.3 361.7 627.7 399.3 654.8 403.2C682 407 709 377 736.2 372.7C763.3 368.3 790.7 389.7 818 385.7C845.3 381.7 872.7 352.3 886.3 337.7L900 323L900 601L886.3 601C872.7 601 845.3 601 818 601C790.7 601 763.3 601 736.2 601C709 601 682 601 654.8 601C627.7 601 600.3 601 573 601C545.7 601 518.3 601 491 601C463.7 601 436.3 601 409 601C381.7 601 354.3 601 327 601C299.7 601 272.3 601 245.2 601C218 601 191 601 163.8 601C136.7 601 109.3 601 82 601C54.7 601 27.3 601 13.7 601L0 601Z" fill="#004385"></path><path d="M0 489L13.7 490.8C27.3 492.7 54.7 496.3 82 484.8C109.3 473.3 136.7 446.7 163.8 440.8C191 435 218 450 245.2 451.5C272.3 453 299.7 441 327 446C354.3 451 381.7 473 409 483.7C436.3 494.3 463.7 493.7 491 479.7C518.3 465.7 545.7 438.3 573 433C600.3 427.7 627.7 444.3 654.8 445.8C682 447.3 709 433.7 736.2 423.3C763.3 413 790.7 406 818 413.2C845.3 420.3 872.7 441.7 886.3 452.3L900 463L900 601L886.3 601C872.7 601 845.3 601 818 601C790.7 601 763.3 601 736.2 601C709 601 682 601 654.8 601C627.7 601 600.3 601 573 601C545.7 601 518.3 601 491 601C463.7 601 436.3 601 409 601C381.7 601 354.3 601 327 601C299.7 601 272.3 601 245.2 601C218 601 191 601 163.8 601C136.7 601 109.3 601 82 601C54.7 601 27.3 601 13.7 601L0 601Z" fill="#034ea1"></path><path d="M0 501L13.7 506C27.3 511 54.7 521 82 527.8C109.3 534.7 136.7 538.3 163.8 538.5C191 538.7 218 535.3 245.2 529C272.3 522.7 299.7 513.3 327 517C354.3 520.7 381.7 537.3 409 537C436.3 536.7 463.7 519.3 491 516.2C518.3 513 545.7 524 573 523.5C600.3 523 627.7 511 654.8 510.7C682 510.3 709 521.7 736.2 523.8C763.3 526 790.7 519 818 511.7C845.3 504.3 872.7 496.7 886.3 492.8L900 489L900 601L886.3 601C872.7 601 845.3 601 818 601C790.7 601 763.3 601 736.2 601C709 601 682 601 654.8 601C627.7 601 600.3 601 573 601C545.7 601 518.3 601 491 601C463.7 601 436.3 601 409 601C381.7 601 354.3 601 327 601C299.7 601 272.3 601 245.2 601C218 601 191 601 163.8 601C136.7 601 109.3 601 82 601C54.7 601 27.3 601 13.7 601L0 601Z" fill="#1859be"></path></svg>